<?xml version="1.0" encoding="utf-8" ?><svg xmlns="http://www.w3.org/2000/svg" xmlns:xlink="http://www.w3.org/1999/xlink" width="1536" height="1024" viewBox="0 0 1536 1024"><defs><linearGradient id="gradient_0" gradientUnits="userSpaceOnUse" x1="543.76276" y1="548.58673" x2="372.83755" y2="457.72437"><stop offset="0" stop-color="#17B7FB"/><stop offset="1" stop-color="#4549FF"/></linearGradient></defs><path fill="url(#gradient_0)" d="M431.631 367.06C455.483 364.543 472.119 373.716 481.492 395.824C516.141 396.199 541.088 418.001 532.721 454.106C560.77 469.77 566.978 506.734 539.57 527.117C541.08 530.741 542.11 533.949 542.683 537.869C544.255 549.168 541.207 560.623 534.23 569.646C527.297 578.757 517.897 584.412 506.599 586.035C502.133 598.73 498.414 605.271 487.6 613.798C477.081 622.128 462.488 628.804 448.851 627.718C438.374 626.851 428.683 621.817 421.947 613.744C409.224 598.531 411.623 580.512 411.792 562.31C412.025 537.275 410.531 520.31 431.994 503.123C410.848 480.14 406.997 460.5 435.573 442.378C421.824 429.889 409.857 433.962 411.03 413.469C412.291 391.452 404.595 374.874 431.631 367.06ZM459.373 503.268C462.518 502.905 466.693 502.216 468.885 504.608C477.441 513.941 469.174 518.204 460.722 518.86C445.568 505.554 429.401 511.503 424.773 531.315C421.849 543.835 424.735 559.724 423.327 572.704C422.467 586.256 423.777 601.886 435.013 611.073C456.382 629.69 503.738 595.661 492.022 570.98C489.468 567.339 488.717 566.208 485.407 563.318C479.456 565.35 465.63 572.197 461.556 571.115C454.592 566.852 454.669 552.048 470.609 558.154C473.872 556.43 477.576 554.596 480.574 552.514C487.152 523.747 499.157 502.037 531.731 517.211C552.304 501.313 544.658 476.854 525.372 463.692C517.846 468.743 490.543 485.325 480.782 485.859C472.555 486.308 476.502 476.877 480.728 471.746C475.589 454.913 468.354 446.046 449.743 447.933C416.285 459.56 423.336 478.362 443.586 498.757C451.286 499.33 452.916 499.354 459.373 503.268ZM510.532 573.387C534.106 561.387 538.705 524.064 511.16 523.703C496.718 528.25 494.22 540.503 491.191 553.966C493.557 555.822 495.204 557.25 497.13 559.583C500.675 563.876 502.626 570.127 506.684 573.759C507.967 573.635 509.25 573.511 510.532 573.387ZM519.373 452.129C525.757 431.48 514.005 415.847 494.179 410.01C491.327 409.14 488.345 408.782 485.368 408.953C472.04 413.548 473.205 426.014 469.209 437.336C486.928 446.841 486.309 452.682 493.929 469.137L502.158 463.921C507.728 460.119 513.964 456.059 519.373 452.129ZM434.557 380.457C431.917 381.317 427.61 382.499 426.573 385.109C423.184 393.639 425.342 411.285 425.229 421.055C432.772 423.73 435.785 425.598 441.915 430.638C446.684 434.558 451.268 437.885 457.056 433.435C461.702 419.803 459.785 415.385 469.319 403.055C462.535 386.849 452.686 379.471 434.557 380.457Z"/><path fill="#4B53FE" d="M369.216 370.031C372.296 369.748 375.713 369.714 378.738 370.438C384.533 371.771 389.54 375.398 392.613 380.489C395.761 385.854 396.613 392.262 394.978 398.264C392.713 406.459 388.293 409.678 381.352 413.506C380.539 428.97 380.944 448.32 381.166 463.93C392.376 468.338 400.83 474.69 402.011 487.634C402.623 494.816 400.261 501.936 395.478 507.328C388.373 515.471 380.98 516.882 370.954 517.64C343.129 577.904 332.848 557.331 388.759 585.158C391.563 587.11 394.421 590.245 396.186 593.08C403.341 604.565 400.182 619.57 401.031 632.486C401.54 640.223 402.664 652.969 395.16 657.496C393.368 657.668 392.64 657.665 391.223 656.433C385.533 651.483 387.454 619.278 387.231 610.462C387.234 593.706 360.139 587.904 347.029 582.861C343.851 587.852 340.204 591.493 334.672 593.776C328.959 596.067 322.568 595.981 316.918 593.538C311.217 591.059 306.761 586.379 304.565 580.562C301.777 573.298 302.732 566.538 305.837 559.639C292.012 545.782 284.889 534.036 279.982 514.913C271.129 512.043 264.414 505.369 262.839 496.005C261.834 489.875 263.312 483.597 266.945 478.559C272.275 471.304 277.868 470.015 286.113 468.656C290.616 456.505 294.454 450.4 302.119 440.245C298.091 433.767 295.853 427.791 298.609 420.171C300.255 415.59 303.697 411.877 308.141 409.892C314.83 406.831 320.472 408.136 326.949 410.589C334.583 405.641 343.635 400.203 351.697 396.089C351.011 381.838 355.806 374.704 369.216 370.031ZM356.914 407.961L334.465 421.264C336.44 436.849 330.479 444.101 314.916 446.022C314.191 446.111 313.466 446.196 312.74 446.276C306.277 455.031 302.086 462.411 298.183 472.682C302.935 476.77 306.425 484.479 309.563 484.458L347.904 484.382C351.602 474.414 354.351 469.99 364.344 465.417C365.548 464.857 366.766 464.33 367.999 463.836C367.595 448.984 367.56 429.437 367.97 414.537C363.399 412.348 361.892 411.683 357.94 408.725L357.296 408.252C357.168 408.155 357.041 408.058 356.914 407.961ZM370.889 386.04C367.524 387.689 366.13 391.754 367.777 395.121C369.423 398.488 373.486 399.884 376.853 398.24C380.223 396.594 381.621 392.526 379.973 389.156C378.325 385.785 374.258 384.39 370.889 386.04ZM314.905 549.712C325.149 545.746 328.556 546.323 338.142 550.55L338.604 550.755L339.65 549.479C347.518 536.414 351.708 526.751 357.749 512.609C351.337 506.615 350.835 505.323 347.766 497.206C335.093 497.197 320.398 497.555 307.895 497.11C304.656 505.736 302.334 509.192 294.031 513.635C298.436 528.182 304.077 538.759 314.905 549.712ZM283.181 483.407C280.087 484.148 277.636 486.504 276.771 489.566C275.907 492.628 276.766 495.918 279.015 498.168C281.265 500.417 284.554 501.274 287.616 500.409C292.218 499.108 294.934 494.363 293.727 489.735C292.519 485.106 287.832 482.293 283.181 483.407ZM324.136 562.264C319.123 563.337 315.943 568.288 317.053 573.294C318.163 578.3 323.137 581.443 328.133 580.296C333.077 579.16 336.179 574.249 335.081 569.296C333.983 564.343 329.096 561.204 324.136 562.264ZM370.766 478.082C366.266 479.434 362.864 483.136 361.896 487.735C360.928 492.334 362.549 497.094 366.121 500.146C369.694 503.198 374.648 504.054 379.038 502.378C385.492 499.914 388.839 492.783 386.612 486.241C384.385 479.7 377.383 476.095 370.766 478.082Z"/><path fill="#4B53FE" d="M636.767 417.99L652.144 417.791C661.604 431.534 672.984 451.376 681.907 466L681.11 418.497L697.281 418.526C698.225 440.036 697.359 469.012 697.235 491.086C695.801 491.442 683.791 491.319 681.545 491.32C672.036 477.662 661.739 459.767 652.421 445.246C652.58 460.536 652.605 475.826 652.497 491.116C647.04 490.996 642.376 490.961 636.901 491.163C636.346 467.389 636.771 441.894 636.767 417.99Z"/><path fill="#20A6FB" d="M1137.72 418.085L1153.24 417.814C1153.03 439.348 1153.02 460.883 1153.23 482.416C1153.34 486.326 1153.95 487.512 1152.17 490.39C1148.96 492.187 1142.77 491.216 1138.65 491.005C1129.78 478.741 1118.33 458.474 1109.53 444.978C1110.26 459.809 1110.03 475.785 1110.05 490.73L1094.36 490.738C1094.33 466.86 1094.64 441.794 1093.99 418.036L1108.67 417.919C1116.51 428.114 1131.42 454.556 1138.64 466.744C1137.13 456.42 1137.72 429.727 1137.72 418.085Z"/><path fill="#20A6FB" d="M987.766 417.297C1006.61 415.27 1020.32 420.038 1027.01 438.72L1012.61 443.294C1007.03 434.22 999.759 426.822 987.716 431.143C970.635 437.316 971.236 471.798 988.221 477.327C1000.65 481.373 1007.75 474.841 1011.43 463.681C1006.89 463.427 998.676 464.848 995.408 462.728L995.04 460.05L995.151 450.345C1005.7 450.649 1016.25 450.711 1026.8 450.532C1026.73 459.836 1027.68 468.274 1023.27 476.704C1014.44 493.6 991.69 495.785 976.387 487.082C957.853 476.542 954.791 450.021 964.871 432.67C970.229 423.53 977.817 419.713 987.766 417.297Z"/><defs><linearGradient id="gradient_1" gradientUnits="userSpaceOnUse" x1="1227.2991" y1="456.39648" x2="1164.6205" y2="451.92697"><stop offset="0" stop-color="#11D3F5"/><stop offset="1" stop-color="#17C0F8"/></linearGradient></defs><path fill="url(#gradient_1)" d="M1196.87 417.412C1215.83 418.362 1225.35 423.704 1229.67 443.064C1224.9 443.727 1220.13 444.359 1215.35 444.96C1213.4 440.787 1211.52 436.482 1207.58 433.794C1200.5 428.959 1188.48 431.088 1183.69 438.252C1176.02 449.679 1178.2 467.996 1190.03 475.892C1200.19 482.678 1208.99 475.873 1214.42 467.327L1215.06 465.887C1218.48 464.12 1225.61 466.763 1229.65 467.853C1223.9 481.75 1218.14 489.703 1202.3 491.637C1181.38 494.375 1165.2 479.67 1163.91 458.903C1162.45 435.322 1172.58 419.11 1196.87 417.412Z"/><path fill="#3E4045" d="M606.997 524.479L620.719 524.7L639.17 557.629L657.907 524.606C661.857 524.416 666.497 524.638 670.501 524.729C670.64 545.138 670.645 565.547 670.518 585.956L658.027 585.97L657.907 566.951L657.908 546.936C653.416 553.513 647.607 564.259 643.235 571.498L634.797 571.44C629.858 563.777 624.228 553.63 619.507 545.627L619.534 585.296C615.442 585.226 611.088 585.339 606.972 585.372C606.743 565.075 606.751 544.776 606.997 524.479Z"/><path fill="#20A6FB" d="M1038.56 418.165C1053.1 418.259 1067.64 418.168 1082.19 417.891L1082.15 432.893L1052.97 432.774L1052.99 447.892L1080.33 447.892C1080.66 452.709 1080.41 457.274 1080.24 462.084C1073.56 461.973 1059.06 461.441 1053.03 462.27L1053 476.33L1082.5 476.362C1082.61 481.064 1082.56 485.956 1082.58 490.676L1038.43 490.702C1038.2 481.713 1036.83 422.932 1038.56 418.165Z"/><path fill="#4B53FE" d="M770.991 418.36C785.122 417.99 800.837 418.347 815.095 418.359C815.104 423.337 814.874 428.326 814.688 433.301L785.867 432.786L785.814 447.93L813.136 447.847L813.142 462.054L786.03 461.95L786.03 476.104L815.167 476.494L815.055 490.695L770.811 490.654C771.023 466.556 771.083 442.458 770.991 418.36Z"/><path fill="#12D3F4" d="M1238.82 418.841C1253.3 418.711 1267.78 418.778 1282.25 419.042C1281.91 423.356 1281.92 428.58 1281.82 432.973C1272.82 433.098 1263.46 432.933 1254.43 432.905L1254.37 447.861L1279.58 447.949L1279.52 461.472C1272.24 461.427 1262.21 461.093 1255.18 461.721L1254.43 462.673L1254.5 476.344L1282.58 476.401L1282.55 490.691C1271.11 491.517 1250.96 490.824 1238.88 490.787C1238.35 467.375 1238.76 442.335 1238.82 418.841Z"/><path fill="#3E4045" d="M755.043 524.053C763.234 525.093 772.462 523.489 781.7 524.77C802.55 527.661 805.13 552.795 788.203 563.058L801.122 585.607L791.062 585.662C789.961 585.685 788.704 585.525 787.589 585.427C781.628 581.17 776.143 558.475 767.256 565.482L767.255 585.269C763.158 585.167 758.616 585.313 754.483 585.356C754.557 576.328 753.797 529.548 755.043 524.053ZM767.257 553.3C772.659 553.345 778.704 554.013 783.456 551.693C786.751 547.575 789.174 541.418 783.579 537.851C778.424 534.564 773.048 535.295 767.227 535.626L767.257 553.3Z"/><path fill="#3E4045" d="M1111.04 524.239C1114.98 523.965 1121.7 524.209 1125.85 524.226C1132.1 543.488 1141.43 565.502 1148.34 585.243L1135.18 585.332C1133.93 581.57 1132.49 576.485 1130.38 573.267L1128.19 572.942L1107 572.838L1102.57 585.761C1098.72 585.389 1093.15 585.528 1089.16 585.509C1096.77 565.718 1104.13 544.265 1111.04 524.239ZM1110.67 561.926L1120.69 561.96L1125.84 561.878L1126.52 561.073C1123.63 553.875 1121.29 545.519 1118.58 539.102C1116.01 546.565 1113.41 554.568 1110.67 561.926Z"/><path fill="#3E4045" d="M983.211 524.252C991.488 524.195 999.036 524.108 1007.53 524.65C1025.33 525.786 1033.12 544.015 1022.76 558.077C1018.99 563.201 1014.13 564.551 1007.91 565.193L995.85 565.725C995.901 572.447 995.88 579.168 995.787 585.889L983.294 585.908C982.381 567.248 983.137 543.25 983.211 524.252ZM995.94 554.393C1003.02 554.682 1006.76 555.683 1012.55 551.5C1019.86 536.168 1007.41 534.56 995.766 535.019L995.94 554.393Z"/><path fill="#3E4045" d="M706.331 524.391L720.697 524.489C728.201 543.4 736.806 566.044 743.243 585.242L730.256 585.318C726.548 576.098 729.436 572.53 718.313 572.58L701.79 572.825C700.859 576.318 698.592 582.132 697.325 585.711C693.189 585.51 688.324 585.579 684.124 585.529C691.4 565.104 698.802 544.724 706.331 524.391ZM705.583 561.917L715.688 561.933L720.847 561.851L721.445 561.098C719.043 555.198 715.724 544.352 713.267 539.765L705.583 561.917Z"/><path fill="#4B53FE" d="M705.124 418.658C723.358 418.359 742.34 418.67 760.68 418.589L760.788 433.135L741.565 433.23L741.647 472.686L741.809 490.58L725.873 490.578C725.92 472.944 724.88 450.148 725.777 433.093L705.299 433.102L705.124 418.658Z"/><path fill="#3E4045" d="M846.398 524.142L861.889 524.278C854.349 533.767 846.66 543.136 838.824 552.382C843.991 558.697 849.569 566.567 854.506 573.194C857.274 577.274 860.446 581.465 863.367 585.468C858.549 585.119 852.594 585.315 847.683 585.345C842.258 578.281 836.797 568.798 831.008 562.313C830.261 561.475 829.973 561.827 828.761 562.091C826.2 566.25 827.076 580.266 827.15 585.874L814.45 585.836C814.3 565.315 814.312 544.793 814.484 524.272L827.148 524.405C827.158 532.534 827.056 540.662 826.843 548.788C833.293 540.518 839.811 532.303 846.398 524.142Z"/><path fill="#3E4045" d="M1181.24 523.193C1196.79 522.274 1207.45 528.58 1211.14 544.086C1206.99 544.965 1203.88 545.332 1199.65 545.796C1195.47 533.816 1183.41 530.886 1174.18 537.895C1156.25 551.503 1172.9 590.828 1196.36 570.316C1197.44 568.538 1197.85 567.951 1199.18 566.358C1202.75 564.911 1207.1 566.17 1211.12 566.771C1209.97 570.071 1208.69 573.151 1206.67 576.037C1199.4 587.729 1176.04 590.289 1165.94 581.099C1145.53 562.55 1151.48 527.074 1181.24 523.193Z"/><path fill="#3E4045" d="M1225.31 524.226L1263.13 524.222L1263.08 535.057C1254.99 534.854 1246.33 535.012 1238.19 535.016L1238.19 549.189C1245.54 549.335 1253.11 549.278 1260.48 549.311L1260.56 560.314C1256.02 560.183 1242.09 559.4 1238.4 561.063L1238.15 563.2L1238.17 574.809L1263.65 574.884L1263.65 585.599C1251.31 585.183 1237.73 585.427 1225.4 585.726L1225.31 524.226Z"/><path fill="#3E4045" d="M875.158 524.202L912.634 524.5L912.548 534.946C904.193 534.928 895.838 534.966 887.483 535.06L887.248 549.59C894.622 550 902.387 549.791 909.76 549.516L909.674 560.372C904.873 560.331 891.237 559.173 887.627 561.289L887.432 563.95L887.475 575.177C896.057 575.015 904.643 575.056 913.224 575.299L913.038 585.338C900.306 585.158 887.571 585.168 874.84 585.37C874.791 564.98 874.897 544.59 875.158 524.202Z"/><path fill="#2E86FE" d="M879.802 418.566L894.872 418.582C894.645 437.421 895.123 457.262 895.229 476.188C904.033 476.404 913.422 476.267 922.275 476.295L922.214 489.168L921.817 490.455C917.693 491.377 885.624 490.758 879.323 490.706L879.802 418.566Z"/><path fill="#2E86FE" d="M838.609 418.275L841.51 418.522C843.491 420.792 842.215 469.466 842.141 476.385L868.956 476.414C869.084 481.476 868.945 485.846 868.75 490.876L859.687 490.865C849.035 490.793 838.267 490.602 827.634 491.075C826.689 467.762 826.949 441.632 827.078 418.277L838.609 418.275Z"/><path fill="#3E4045" d="M924.154 524.105C940.076 524.025 955.999 524.03 971.921 524.122L971.853 535.052L954.201 535.129L954.37 570.327L954.253 585.829C950.25 585.454 945.503 585.559 941.428 585.544L941.379 535.153C936.307 534.86 929.363 535.013 924.162 534.988L924.154 524.105Z"/><path fill="#20A6FB" d="M933.14 418.16L948.085 417.953L948.038 490.836L932.899 490.843C932.918 468.572 932.112 439.867 933.14 418.16Z"/><path fill="#4B53FE" d="M608.537 418.158L621.724 417.907C621.662 439.089 621.832 460.271 622.234 481.449C622.261 484.394 622.737 488.958 621.027 490.697L607.394 490.71C606.407 471.554 607.188 452.011 606.77 432.814C606.675 428.437 606.567 423.384 607.16 419.074L608.537 418.158Z"/><path fill="#3E4045" d="M1040.87 524.49C1044.99 524.511 1049.11 524.602 1053.23 524.764L1053.13 574.888L1078.32 574.883L1078.38 585.807C1065.82 585.358 1053.36 585.618 1040.8 585.888L1040.87 524.49Z"/></svg>